<svg fill="#DBDDE0" xmlns="http://www.w3.org/2000/svg" xmlns:xlink="http://www.w3.org/1999/xlink" version="1.1" x="0px" y="0px" viewBox="-44 -44 600 600" enable-background="new 0 0 512 512" xml:space="preserve"><g><path d="M332.3,156.6c1.9,0.8,3.9,0.4,5.4-1.1l30.8-30.8c2.5-2.5,1.8-6.8-1.3-8.3C333.5,100,295.8,90.8,256,90.8   C119.4,90.8,7.6,199.1,2,334.3C1.8,340.1,6.6,345,12.4,345h30.5c5.4,0,9.7-4.3,10-9.8C58,227.6,147.1,141.6,256,141.6   C283,141.6,308.7,147,332.3,156.6z"></path><path d="M452.6,184.3l24.7-24.7L445,127.2c-2-2-5.2-2-7.2,0L288.7,276.4c-15.6-7.5-33.7-10.3-53.3-4.7c-28,8.1-50.2,32.2-54.7,61   c-8.1,51.7,36,95.8,87.6,87.6c28.8-4.5,52.9-26.7,61-54.7c5.6-19.5,2.8-37.7-4.7-53.3l91.7-91.7c24.9,32,40.7,71.5,42.8,114.6   c0.3,5.4,4.5,9.8,10,9.8h30.5c5.8,0,10.6-4.9,10.4-10.6C507.6,277.5,486.4,225.6,452.6,184.3z M256,370.4   c-14,0-25.4-11.4-25.4-25.4c0-14,11.4-25.4,25.4-25.4c14,0,25.4,11.4,25.4,25.4C281.4,359,270,370.4,256,370.4z"></path></g></svg>