<svg fill="#DBDDE0" xmlns:dc="http://purl.org/dc/elements/1.1/" xmlns:cc="http://creativecommons.org/ns#" xmlns:rdf="http://www.w3.org/1999/02/22-rdf-syntax-ns#" xmlns:svg="http://www.w3.org/2000/svg" xmlns="http://www.w3.org/2000/svg" xmlns:sodipodi="http://sodipodi.sourceforge.net/DTD/sodipodi-0.dtd" xmlns:inkscape="http://www.inkscape.org/namespaces/inkscape" version="1.1" x="0px" y="0px" viewBox="0 0 100 100"><g transform="translate(0,-952.36218)"><path style="text-indent:0;text-transform:none;direction:ltr;block-progression:tb;baseline-shift:baseline;color:#000000;enable-background:accumulate;" d="m 50,975.26843 c -18.754,0 -34,15.2461 -34,33.99997 0,7.5474 2.45161,14.5415 6.625,20.1875 l 3,-2.6563 C 22.07812,1021.8724 20,1015.8152 20,1009.2684 c 0,-16.59207 13.40778,-29.99997 30,-29.99997 16.59222,0 30,13.4079 30,29.99997 0,6.5468 -2.07813,12.604 -5.625,17.5312 l 3,2.6563 C 81.54839,1023.8099 84,1016.8158 84,1009.2684 84,990.51453 68.754,975.26843 50,975.26843 z m 17.6875,25.31247 -21.21875,14.1563 c -1.95268,1.9526 -1.95262,5.1098 0,7.0624 1.95263,1.9527 5.10982,1.9527 7.0625,0 l 14.15625,-21.2187 z" fill="#DBDDE0" fill-opacity="1" stroke="none" marker="none" visibility="visible" display="inline" overflow="visible"></path></g></svg>