<svg fill="#DBDDE0" xmlns="http://www.w3.org/2000/svg" xmlns:xlink="http://www.w3.org/1999/xlink" version="1.1" x="0px" y="0px" viewBox="0 0 512 512" style="enable-background:new 0 0 512 512;" xml:space="preserve"><g><path d="M321,172.3h28.3l-36.3,125.8c-1.5,5.5-2.3,10-2.3,13.6c0,7.6,3.1,11.3,9.4,11.3c2.5,0,5.8-0.5,9.9-1.4   c4.2-0.9,8.7-2.7,13.6-5.4c4.9-2.6,9.9-6.2,15-10.6c5.1-4.4,9.7-10.2,13.7-17.1c4.1-7,7.4-15.4,10.1-25.2c2.6-9.8,4-21.4,4-34.9   c0-16.2-3.3-31.2-9.8-44.8c-6.5-13.6-15.3-25.3-26.2-35c-11-9.7-23.5-17.3-37.7-22.8c-14.2-5.5-28.9-8.2-44.2-8.2   c-20,0-38.7,3.6-56,10.9c-17.3,7.3-32.3,17.4-45.1,30.3c-12.8,12.9-22.8,28.3-30.2,46.1c-7.4,17.8-11.1,37.1-11.1,58.1   c0,19.8,3.8,37.8,11.3,54c7.6,16.2,17.7,29.9,30.3,41.4c12.7,11.4,27.1,20.3,43.4,26.5c16.2,6.2,33.2,9.4,50.7,9.4   c23.8,0,44.7-4.8,62.8-14.5c18-9.6,32.5-22.5,43.5-38.5h28.3c-5.3,13.6-12.8,25.4-22.4,35.4c-9.6,10-20.8,18.3-33.4,24.9   c-12.7,6.6-26.3,11.5-41,14.7c-14.6,3.2-29.6,4.8-44.9,4.8c-13.4,0-26.6-1.7-39.7-5.2c-13-3.5-25.4-8.5-37-15   c-11.6-6.5-22.3-14.4-32.2-23.7c-9.8-9.3-18.3-19.7-25.5-31.3c-7.2-11.6-12.8-24.3-16.7-38.1c-4-13.8-6-28.3-6-43.6   c0-26.6,4.6-50.6,13.9-72c9.3-21.3,21.7-39.5,37.3-54.6c15.6-15,33.7-26.5,54.4-34.6c20.7-8,42.6-12,65.6-12   c18.7,0,36.7,3.3,54.1,9.9c17.4,6.6,32.8,15.9,46.3,27.9c13.5,12,24.3,26.3,32.3,42.8c8,16.5,12,34.7,12,54.6c0,20.2-3,38-9.1,53.4   c-6,15.4-14.1,28.3-24.2,38.8c-10.1,10.5-21.6,18.4-34.4,23.8c-12.8,5.4-26.1,8.1-39.7,8.1c-8.1,0-14.6-2.6-19.3-7.8   c-4.7-5.2-7.4-11.3-7.9-18.3c-6.6,9.3-13.9,15.9-21.8,20c-7.9,4.1-17.4,6.1-28.3,6.1c-9.8,0-18.7-1.9-26.5-5.8   c-7.8-3.9-14.6-9-20.1-15.3c-5.6-6.3-9.8-13.6-12.8-21.7c-2.9-8.1-4.4-16.3-4.4-24.7c0-13.6,2.4-27.3,7.1-41.2   c4.7-13.9,11.4-26.5,20.1-37.8c8.7-11.3,19-20.5,31-27.6c12-7.1,25.3-10.6,39.8-10.6c7,0,13.3,1.2,18.8,3.7   c5.6,2.5,10.3,5.4,14.3,8.9c4,3.5,7.2,7.1,9.8,10.9c2.6,3.8,4.3,7,5.2,9.6L321,172.3z M289.9,276.5c2.5-8.1,4.4-14.7,6-19.8   c1.5-5.1,2.6-9.3,3.3-12.5c0.7-3.2,1.1-5.7,1.3-7.5c0.2-1.8,0.3-3.3,0.3-4.4c0-5.9-0.9-11.2-2.8-16.2c-1.9-4.9-4.5-9.1-7.9-12.6   c-3.4-3.5-7.3-6.2-11.8-8.1c-4.4-1.9-9.2-2.8-14.3-2.8c-8.5,0-16.8,2.8-24.9,8.4c-8.1,5.6-15.4,12.6-21.8,21.1   c-6.4,8.5-11.6,17.8-15.6,27.9c-4,10.1-6,19.6-6,28.5c0,5.5,0.7,10.9,2,16.3c1.3,5.4,3.4,10.3,6.4,14.6c2.9,4.3,6.8,7.9,11.5,10.6   c4.7,2.7,10.4,4.1,17,4.1c5.9,0,11.7-1,17.6-3.1c5.9-2.1,11.3-5.1,16.4-9.2c5.1-4.1,9.7-9.1,13.7-15   C284.1,290.9,287.4,284.1,289.9,276.5z"></path></g></svg>