<svg fill="#DBDDE0" xmlns="http://www.w3.org/2000/svg" data-name="Layer 1" viewBox="-25 -25 150 150" x="0px" y="0px"><title>Artboard 6</title><path d="M8.87,49.39l12.94,5.37A75.61,75.61,0,0,0,19,63.86a2.76,2.76,0,0,0,.72,2.6L33.53,80.29a2.76,2.76,0,0,0,2.6.72,75.61,75.61,0,0,0,9.1-2.82l5.37,12.94a2.09,2.09,0,0,0,3.41.68l7.18-7.18A14,14,0,0,0,65.26,74l-.35-6.8C79.93,55.79,93.84,36.46,98,4.65A2.33,2.33,0,0,0,95.35,2c-31.81,4.14-51.14,18-62.6,33.05L26,34.74A14,14,0,0,0,15.38,38.8L8.19,46A2.09,2.09,0,0,0,8.87,49.39ZM62,25.7A8.67,8.67,0,1,1,62,38,8.67,8.67,0,0,1,62,25.7ZM2,95.51c.74-13.62,7.35-21.12,11.14-24.34A1.16,1.16,0,0,1,15,72.25a21.12,21.12,0,0,0-.18,6.21,7.65,7.65,0,0,0,6.67,6.67A21.12,21.12,0,0,0,27.75,85a1.16,1.16,0,0,1,1.08,1.9C25.61,90.64,18.11,97.25,4.49,98A2.36,2.36,0,0,1,2,95.51Z"></path></svg>