<?xml version="1.0" encoding="UTF-8"?>
<svg version="1.1" viewBox="0 0 300 300" xmlns="http://www.w3.org/2000/svg" xmlns:cc="http://creativecommons.org/ns#" xmlns:dc="http://purl.org/dc/elements/1.1/" xmlns:rdf="http://www.w3.org/1999/02/22-rdf-syntax-ns#">
<metadata>
<rdf:RDF>
<cc:Work rdf:about="">
<dc:format>image/svg+xml</dc:format>
<dc:type rdf:resource="http://purl.org/dc/dcmitype/StillImage"/>
<dc:title/>
</cc:Work>
</rdf:RDF>
</metadata>
<g transform="translate(-73.529 -433.12)">
<g transform="matrix(4.3707 0 0 -4.3707 325.05 434.12)">
<path d="m0 0c5.999 0 10.864-4.864 10.864-10.865v-46.453c0-5.999-4.865-10.864-10.864-10.864h-46.453c-6 0-10.865 4.865-10.865 10.864v46.453c0 6.001 4.865 10.865 10.865 10.865h46.453z" fill="#fffc00"/>
</g>
<g transform="matrix(4.3707 0 0 -4.3707 224.62 685.45)">
<path d="m0 0c-0.129 0-0.255 4e-3 -0.382 0.01-0.081-7e-3 -0.165-0.01-0.249-0.01-2.959 0-4.858 1.342-6.695 2.641-1.268 0.896-2.465 1.742-3.875 1.977-0.688 0.114-1.373 0.171-2.034 0.171-1.193 0-2.133-0.184-2.82-0.318-0.417-0.082-0.777-0.152-1.051-0.152-0.286 0-0.595 0.062-0.73 0.522-0.117 0.399-0.201 0.784-0.283 1.158-0.21 0.96-0.359 1.551-0.761 1.613-4.693 0.725-6.037 1.714-6.336 2.415-0.042 0.1-0.067 0.201-0.072 0.3-0.015 0.27 0.175 0.508 0.442 0.551 7.214 1.188 10.449 8.562 10.584 8.875 3e-3 8e-3 7e-3 0.017 0.011 0.025 0.442 0.895 0.528 1.672 0.258 2.309-0.495 1.166-2.11 1.679-3.179 2.018-0.261 0.083-0.509 0.161-0.705 0.239-2.133 0.843-2.31 1.708-2.226 2.149 0.143 0.752 1.147 1.276 1.96 1.276 0.222 0 0.418-0.04 0.583-0.117 0.96-0.449 1.824-0.677 2.571-0.677 1.031 0 1.481 0.433 1.536 0.49-0.027 0.488-0.059 0.998-0.092 1.525-0.215 3.41-0.482 7.649 0.598 10.068 3.234 7.251 10.092 7.815 12.117 7.815 0.052 0 0.888 9e-3 0.888 9e-3h0.12c2.029 0 8.903-0.564 12.139-7.82 1.079-2.42 0.812-6.662 0.597-10.07l-9e-3 -0.149c-0.03-0.474-0.059-0.935-0.083-1.377 0.052-0.053 0.466-0.451 1.4-0.487h1e-3c0.711 0.027 1.527 0.254 2.423 0.673 0.262 0.123 0.554 0.149 0.752 0.149 0.304 0 0.611-0.059 0.866-0.165l0.016-7e-3c0.724-0.257 1.199-0.764 1.209-1.295 0.01-0.5-0.372-1.251-2.243-1.99-0.194-0.077-0.442-0.155-0.705-0.239-1.07-0.339-2.684-0.852-3.179-2.018-0.27-0.637-0.184-1.413 0.258-2.308 4e-3 -9e-3 8e-3 -0.017 0.012-0.026 0.134-0.313 3.366-7.685 10.584-8.874 0.266-0.044 0.457-0.282 0.442-0.551-6e-3 -0.101-0.031-0.203-0.074-0.302-0.298-0.696-1.64-1.684-6.334-2.409-0.384-0.059-0.533-0.559-0.762-1.607-0.083-0.381-0.167-0.756-0.283-1.15-0.1-0.342-0.313-0.502-0.672-0.502h-0.058c-0.249 0-0.602 0.045-1.05 0.133-0.795 0.155-1.686 0.298-2.82 0.298-0.662 0-1.347-0.057-2.036-0.171-1.408-0.235-2.604-1.079-3.87-1.974-1.84-1.302-3.739-2.644-6.699-2.644" fill="#fff"/>
</g>
<g transform="matrix(4.3707 0 0 -4.3707 225.4 482.86)">
<path d="m0 0c1.921 0 8.538-0.516 11.656-7.507 1.027-2.301 0.764-6.471 0.553-9.821-0.034-0.532-0.066-1.047-0.092-1.539l-0.012-0.211 0.142-0.158c0.056-0.063 0.59-0.621 1.777-0.667l0.02-1e-3 0.019 1e-3c0.785 0.03 1.669 0.273 2.63 0.723 0.14 0.066 0.329 0.098 0.528 0.098 0.227 0 0.468-0.042 0.667-0.126l0.03-0.012c0.503-0.176 0.859-0.509 0.865-0.81 3e-3 -0.171-0.125-0.783-1.909-1.488-0.175-0.069-0.405-0.142-0.671-0.226-1.161-0.369-2.915-0.925-3.506-2.315-0.332-0.785-0.242-1.71 0.271-2.75 0.211-0.491 3.524-7.958 10.984-9.187-2e-3 -0.035-0.011-0.074-0.031-0.12-0.126-0.298-0.93-1.326-5.93-2.097-0.783-0.121-0.974-0.998-1.197-2.018-0.079-0.364-0.162-0.732-0.274-1.113-0.034-0.115-0.04-0.122-0.164-0.122h-0.059c-0.221 0-0.559 0.046-0.949 0.122-0.709 0.139-1.68 0.309-2.921 0.309-0.692 0-1.406-0.061-2.122-0.179-1.53-0.255-2.775-1.135-4.093-2.066-1.769-1.252-3.599-2.545-6.39-2.545-0.121 0-0.24 4e-3 -0.36 0.01l-0.031 1e-3 -0.032-2e-3c-0.068-6e-3 -0.137-9e-3 -0.208-9e-3 -2.791 0-4.621 1.293-6.39 2.544-1.318 0.932-2.563 1.812-4.092 2.067-0.716 0.118-1.43 0.179-2.122 0.179-1.241 0-2.212-0.189-2.922-0.328-0.39-0.077-0.727-0.142-0.949-0.142-0.18 0-0.184 0.01-0.222 0.141-0.112 0.381-0.195 0.759-0.274 1.123-0.223 1.02-0.416 1.902-1.197 2.023-5.001 0.772-5.804 1.802-5.931 2.099-0.02 0.046-0.028 0.087-0.03 0.122 7.459 1.229 10.773 8.695 10.984 9.188 0.512 1.04 0.603 1.964 0.27 2.749-0.59 1.391-2.344 1.947-3.506 2.316-0.266 0.084-0.496 0.157-0.67 0.226-1.508 0.596-1.971 1.195-1.901 1.559 0.079 0.419 0.806 0.845 1.44 0.845 0.142 0 0.267-0.022 0.359-0.066 1.03-0.482 1.971-0.727 2.795-0.727 1.296 0 1.874 0.603 1.935 0.672l0.141 0.157-0.012 0.21c-0.026 0.492-0.059 1.006-0.092 1.537-0.211 3.351-0.474 7.518 0.553 9.82 3.106 6.965 9.69 7.502 11.634 7.502 0.048 0 0.893 8e-3 0.893 8e-3 0.036 1e-3 0.074 1e-3 0.115 1e-3m0 1.057h-2e-3 -0.125s-0.817-8e-3 -0.882-8e-3c-2.104 0-9.235-0.587-12.599-8.129-1.132-2.538-0.861-6.848-0.643-10.311 0.026-0.408 0.053-0.832 0.076-1.242-0.174-0.096-0.492-0.216-0.992-0.216-0.668 0-1.457 0.21-2.346 0.627-0.236 0.11-0.508 0.166-0.808 0.166-1.041 0-2.286-0.685-2.479-1.705-0.14-0.735 0.189-1.807 2.551-2.74 0.213-0.085 0.469-0.166 0.74-0.251 0.976-0.31 2.451-0.778 2.852-1.721 0.207-0.489 0.124-1.118-0.246-1.868-8e-3 -0.017-0.016-0.034-0.023-0.052-0.13-0.302-3.252-7.419-10.184-8.56-0.533-0.088-0.914-0.564-0.884-1.103 9e-3 -0.161 0.047-0.32 0.112-0.475 0.521-1.216 2.715-2.108 6.711-2.728 0.134-0.18 0.273-0.818 0.358-1.207 0.083-0.384 0.169-0.779 0.292-1.197 0.12-0.41 0.433-0.9 1.237-0.9 0.325 0 0.709 0.075 1.152 0.162 0.666 0.13 1.578 0.308 2.719 0.308 0.633 0 1.289-0.055 1.949-0.164 1.289-0.215 2.385-0.99 3.653-1.886 1.817-1.285 3.875-2.739 7.002-2.739 0.086 0 0.172 2e-3 0.258 9e-3 0.101-5e-3 0.233-9e-3 0.373-9e-3 3.128 0 5.186 1.454 7.001 2.738 1.271 0.898 2.366 1.672 3.655 1.887 0.66 0.109 1.316 0.164 1.949 0.164 1.089 0 1.95-0.138 2.718-0.288 0.482-0.095 0.869-0.143 1.152-0.143h0.03 0.029c0.594 0 1.013 0.314 1.179 0.883 0.121 0.409 0.207 0.794 0.292 1.184 0.085 0.388 0.223 1.023 0.356 1.203 3.997 0.62 6.191 1.51 6.711 2.721 0.066 0.155 0.105 0.316 0.114 0.478 0.03 0.54-0.351 1.014-0.884 1.102-6.935 1.143-10.055 8.259-10.184 8.561-7e-3 0.017-0.015 0.034-0.024 0.051-0.37 0.751-0.452 1.379-0.245 1.868 0.4 0.943 1.875 1.411 2.851 1.72 0.273 0.087 0.529 0.169 0.74 0.252 1.729 0.683 2.596 1.521 2.578 2.492-0.015 0.763-0.609 1.443-1.553 1.78l-3e-3 1e-3c-0.317 0.132-0.694 0.204-1.063 0.204-0.253 0-0.627-0.034-0.977-0.198-0.822-0.385-1.561-0.595-2.198-0.623-0.423 0.019-0.699 0.126-0.857 0.213 0.02 0.351 0.043 0.713 0.066 1.091l9e-3 0.147c0.219 3.465 0.49 7.779-0.642 10.318-3.366 7.546-10.512 8.133-12.622 8.133" fill="#030303"/>
</g>
</g>
</svg>
