<?xml version="1.0" encoding="UTF-8"?>
<svg enable-background="new 0 0 400 400" version="1.1" viewBox="0 0 400 400" xml:space="preserve" xmlns="http://www.w3.org/2000/svg" xmlns:cc="http://creativecommons.org/ns#" xmlns:dc="http://purl.org/dc/elements/1.1/" xmlns:rdf="http://www.w3.org/1999/02/22-rdf-syntax-ns#"><metadata><rdf:RDF><cc:Work rdf:about=""><dc:format>image/svg+xml</dc:format><dc:type rdf:resource="http://purl.org/dc/dcmitype/StillImage"/><dc:title/></cc:Work></rdf:RDF></metadata><g><rect width="400" height="400" fill="#f00"/><g transform="matrix(7.8702 0 0 7.8702 695.2 -948.42)"><path transform="matrix(.16942 0 0 .16942 -88.333 120.51)" d="m149.94 79.223s-63.219 5.9e-5 -79.086 4.123c-8.4958 2.3738-15.491 9.3695-17.865 17.99-4.123 15.867-4.123 48.727-4.123 48.727s9.4e-5 32.984 4.123 48.602c2.3738 8.6206 9.2445 15.491 17.865 17.865 15.992 4.2479 79.086 4.248 79.086 4.248s63.344-5e-5 79.211-4.123c8.6208-2.3738 15.491-9.1197 17.74-17.865 4.2479-15.742 4.248-48.602 4.248-48.602s0.12484-32.984-4.248-48.852c-2.2489-8.6207-9.1194-15.491-17.74-17.74-15.867-4.3728-79.211-4.373-79.211-4.373zm-20.115 40.48l52.6 30.359-52.6 30.234v-60.594z" fill="#fff"/></g></g></svg>
